<?xml version="1.0" encoding="UTF-8"?>
<svg xmlns="http://www.w3.org/2000/svg" version="1.1" xmlns:xlink="http://www.w3.org/1999/xlink" viewBox="0 0 800 160">
  <defs>
    <style>
      .cls-1 {
        fill: none;
      }

      .cls-2 {
        clip-path: url(#clippath);
      }
    </style>
    <clipPath id="clippath">
      <rect class="cls-1" width="800" height="160"/>
    </clipPath>
  </defs>
  <!-- Generator: Adobe Illustrator 28.7.1, SVG Export Plug-In . SVG Version: 1.2.0 Build 142)  -->
  <g>
    <g id="Ebene_1">
      <g id="Ebene_1-2" data-name="Ebene_1">
        <polygon points="355 134.1 383.7 88.9 365.2 69.6 345.4 100.8 355 134.1"/>
        <polygon points="333 57.6 341.4 44.3 323 25 333 57.6"/>
        <polygon points="330 62.9 297.9 56.2 277.3 84.7 340 97.4 330 62.9"/>
        <polygon points="341.4 101.7 275.2 88.6 255.6 115.7 351 135 341.4 101.7"/>
        <polygon points="319.5 25.6 300 52.7 329.1 58.7 319.5 25.6"/>
        <polygon points="344 96.4 362.6 66.9 343.8 47.2 334.1 62.1 344 96.4"/>
        <g class="cls-2">
          <path d="M69.5,53.1h12.7v-9.4h-36.2v9.4h12.7v35.6h10.9v-35.6h0ZM142.2,58.9c0,3.8-2.9,5.8-6.8,5.8h-8.3v-11.6h8.2c4,0,6.8,1.9,6.8,5.8M142.8,88.7h12.4v-.8l-10.1-14.9v-.8c5.2-2.4,8.4-7.1,8.4-13.3s-7-15.2-17.3-15.2h-19.9v45h10.9v-14.8h6.3l9.4,14.8h0ZM190.2,88.7h10.9v-45h-10.9v45ZM271.8,66.2c0,7.8-5.2,13-11.9,13s-11.8-5.2-11.8-13,5.2-13,11.8-13,11.9,5.2,11.9,13M283,65.1c-.5-12.4-9.8-22.4-23.1-22.4s-23,10.6-23,23.5,9.5,23.6,23,23.6,4.1-.3,6.1-.8l17.1-23.9h-.1ZM385.3,53.1h12.7v-9.4h-36.2v9.4h12.7v16.7l10.9,11v-27.8h-.1ZM458,58.9c0,3.8-2.9,5.8-6.8,5.8h-8.3v-11.6h8.2c4,0,6.8,1.9,6.8,5.8M458.6,88.7h12.4v-.8l-10.1-14.9v-.8c5.2-2.4,8.4-7.1,8.4-13.3s-7-15.2-17.3-15.2h-19.9v45h10.9v-14.8h6.3l9.4,14.8h0ZM537.8,66.2c0,7.8-5.2,13-11.9,13s-11.8-5.2-11.8-13,5.2-13,11.8-13,11.9,5.2,11.9,13M549.1,66.2c0-12.9-9.4-23.5-23.2-23.5s-23,10.6-23,23.5,9.4,23.6,23,23.6,23.2-10.7,23.2-23.6M617.3,88.7h8.4v-45h-10.8v25.8l-21.6-25.8h-8.4v45h10.8v-26.2l21.6,26.2ZM664.2,88.7h10.9v-45h-10.9v45ZM754.6,87.7l-16.6-24.7,16.6-18.3v-1h-13.3l-17,18.8v-18.8h-10.9v45h10.9v-10.5l6.3-7.1,11.7,17.6h12.3v-1.1h0Z"/>
        </g>
      </g>
    </g>
  </g>
</svg>