<?xml version="1.0" encoding="UTF-8"?>
<svg id="Ebene_1" data-name="Ebene 1" xmlns="http://www.w3.org/2000/svg" viewBox="0 0 708.66 110.3">
  <polygon points="309.09 109.26 337.79 64.06 319.28 44.73 299.46 75.99 309.09 109.26 309.09 109.26"/>
  <polygon points="287.07 32.79 295.53 19.43 277.09 .14 287.07 32.79 287.07 32.79"/>
  <polygon points="284.09 38.04 251.94 31.36 231.39 59.88 294.09 72.55 284.09 38.04 284.09 38.04"/>
  <polygon points="295.48 76.89 229.32 63.79 209.73 90.88 305.11 110.16 295.48 76.89 295.48 76.89"/>
  <polygon points="273.58 .79 254.08 27.88 283.15 33.83 273.58 .79 273.58 .79"/>
  <polygon points="298.12 71.52 316.7 42.02 297.86 22.38 288.18 37.2 298.12 71.52 298.12 71.52"/>
  <path d="M708.66,62.82l-16.58-24.67,16.58-18.3v-.97h-13.28l-17.03,18.82v-18.82h-10.88v45h10.88v-10.5l6.3-7.05,11.7,17.55h12.3v-1.05h0ZM618.27,63.87h10.88V18.87h-10.88v45h0ZM571.4,63.87h8.4V18.87h-10.8v25.8l-21.6-25.8h-8.4v45h10.8v-26.25l21.6,26.25h0ZM503.17,41.37c0-12.9-9.45-23.48-23.18-23.48s-23.03,10.58-23.03,23.48,9.45,23.55,23.03,23.55,23.18-10.65,23.18-23.55h0ZM491.92,41.37c0,7.8-5.25,12.97-11.93,12.97s-11.78-5.17-11.78-12.97,5.25-12.98,11.78-12.98,11.93,5.17,11.93,12.98h0ZM412.7,63.87h12.38v-.75l-10.13-14.92v-.82c5.18-2.4,8.4-7.12,8.4-13.35,0-8.77-7.05-15.15-17.33-15.15h-19.88v45h10.88v-14.77h6.3l9.38,14.77h0ZM412.1,34.02c0,3.83-2.93,5.85-6.75,5.85h-8.33v-11.63h8.25c3.98,0,6.83,1.88,6.83,5.77h0ZM339.37,28.24h12.68v-9.38h-36.23v9.38h12.68v16.74l10.88,11.05v-27.79h0ZM237.09,40.27c-.53-12.39-9.8-22.37-23.13-22.37s-23.03,10.58-23.03,23.48,9.45,23.55,23.03,23.55c2.14,0,4.15-.28,6.06-.77l17.07-23.88h0ZM225.89,41.37c0,7.8-5.25,12.97-11.93,12.97s-11.78-5.17-11.78-12.97,5.25-12.98,11.78-12.98,11.93,5.17,11.93,12.98h0ZM144.24,63.87h10.88V18.87h-10.88v45h0ZM96.88,63.87h12.38v-.75l-10.13-14.92v-.82c5.18-2.4,8.4-7.12,8.4-13.35,0-8.77-7.05-15.15-17.33-15.15h-19.88v45h10.88v-14.77h6.3l9.38,14.77h0ZM96.28,34.02c0,3.83-2.93,5.85-6.75,5.85h-8.33v-11.63h8.25c3.98,0,6.83,1.88,6.83,5.77h0ZM23.55,28.24h12.68v-9.38H0v9.38h12.68v35.62h10.88V28.24h0Z"/>
</svg>