<?xml version="1.0" encoding="UTF-8"?>
<svg xmlns="http://www.w3.org/2000/svg" baseProfile="tiny" version="1.2" viewBox="0 0 300 250">
  <!-- Generator: Adobe Illustrator 28.7.1, SVG Export Plug-In . SVG Version: 1.2.0 Build 142)  -->
  <g>
    <g id="Ebene_1">
      <g>
        <polygon points="104.1 179.1 132.8 133.9 114.3 114.6 94.4 145.9 104.1 179.1 104.1 179.1" fill="#fff"/>
        <polygon points="82.1 102.7 90.5 89.3 72.1 70 82.1 102.7 82.1 102.7" fill="#fff"/>
        <polygon points="79.1 107.9 46.9 101.2 26.4 129.7 89.1 142.4 79.1 107.9 79.1 107.9" fill="#fff"/>
        <polygon points="90.5 146.8 24.3 133.7 4.7 160.7 100.1 180 90.5 146.8 90.5 146.8" fill="#fff"/>
        <polygon points="68.6 70.7 49.1 97.7 78.1 103.7 68.6 70.7 68.6 70.7" fill="#fff"/>
        <polygon points="93.1 141.4 111.7 111.9 92.8 92.2 83.2 107.1 93.1 141.4 93.1 141.4" fill="#fff"/>
        <path d="M503.6,132.7l-16.6-24.7,16.6-18.3v-1h-13.3l-17,18.8v-18.8h-10.9v45h10.9v-10.5l6.3-7,11.7,17.5h12.3v-1h0ZM413.2,133.7h10.9v-45h-10.9v45h0ZM366.4,133.7h8.4v-45h-10.8v25.8l-21.6-25.8h-8.4v45h10.8v-26.2l21.6,26.2h0ZM298.1,111.2c0-12.9-9.4-23.5-23.2-23.5s-23,10.6-23,23.5,9.4,23.5,23,23.5,23.2-10.6,23.2-23.5h0ZM286.9,111.2c0,7.8-5.2,13-11.9,13s-11.8-5.2-11.8-13,5.2-13,11.8-13,11.9,5.2,11.9,13h0ZM207.7,133.7h12.4v-.8l-10.1-14.9v-.8c5.2-2.4,8.4-7.1,8.4-13.4s-7.1-15.1-17.3-15.1h-19.9v45h10.9v-14.8h6.3l9.4,14.8h0ZM207.1,103.9c0,3.8-2.9,5.9-6.8,5.9h-8.3v-11.6h8.2c4,0,6.8,1.9,6.8,5.8h0ZM134.4,98.1h12.7v-9.4h-36.2v9.4h12.7v16.7l10.9,11v-27.8h0ZM32.1,110.1c-.5-12.4-9.8-22.4-23.1-22.4s-23,10.6-23,23.5,9.4,23.5,23,23.5,4.1-.3,6.1-.8l17.1-23.9h0ZM20.9,111.2c0,7.8-5.2,13-11.9,13s-11.8-5.2-11.8-13,5.2-13,11.8-13,11.9,5.2,11.9,13h0ZM-60.8,133.7h10.9v-45h-10.9v45h0ZM-108.1,133.7h12.4v-.8l-10.1-14.9v-.8c5.2-2.4,8.4-7.1,8.4-13.4s-7-15.1-17.3-15.1h-19.9v45h10.9v-14.8h6.3l9.4,14.8h0ZM-108.7,103.9c0,3.8-2.9,5.9-6.8,5.9h-8.3v-11.6h8.2c4,0,6.8,1.9,6.8,5.8h0ZM-181.5,98.1h12.7v-9.4h-36.2v9.4h12.7v35.6h10.9v-35.6h0Z" fill="#fff"/>
      </g>
    </g>
    <metadata>
      <sfw xmlns="http://ns.adobe.com/SaveForWeb/1.0/">
        <slices/>
        <sliceSourceBounds x="-205" y="69.97" width="708.63" height="110.03" bottomLeftOrigin="true"/>
      </sfw>
    </metadata>
  </g>
</svg>