<?xml version="1.0" encoding="UTF-8"?>
<svg id="Ebene_1" data-name="Ebene 1" xmlns="http://www.w3.org/2000/svg" viewBox="0 0 708.66 110.3">
  <defs>
    <style>
      .cls-1 {
        fill: #fff;
      }
    </style>
  </defs>
  <g>
    <polygon class="cls-1" points="309.09 109.26 337.79 64.06 319.28 44.73 299.46 75.99 309.09 109.26 309.09 109.26"/>
    <polygon class="cls-1" points="287.07 32.79 295.53 19.43 277.09 .14 287.07 32.79 287.07 32.79"/>
    <polygon class="cls-1" points="284.09 38.04 251.94 31.36 231.39 59.88 294.09 72.55 284.09 38.04 284.09 38.04"/>
    <polygon class="cls-1" points="295.48 76.89 229.32 63.79 209.73 90.88 305.11 110.16 295.48 76.89 295.48 76.89"/>
    <polygon class="cls-1" points="273.58 .79 254.08 27.88 283.15 33.83 273.58 .79 273.58 .79"/>
    <polygon class="cls-1" points="298.12 71.52 316.7 42.02 297.86 22.38 288.18 37.2 298.12 71.52 298.12 71.52"/>
    <path class="cls-1" d="M708.66,62.82l-16.58-24.67,16.58-18.3v-.97h-13.28l-17.03,18.82v-18.82h-10.88v45h10.88v-10.5l6.3-7.05,11.7,17.55h12.3v-1.05h0ZM618.27,63.87h10.88V18.87h-10.88v45h0ZM571.4,63.87h8.4V18.87h-10.8v25.8l-21.6-25.8h-8.4v45h10.8v-26.25l21.6,26.25h0ZM503.17,41.37c0-12.9-9.45-23.48-23.18-23.48s-23.03,10.58-23.03,23.48,9.45,23.55,23.03,23.55,23.18-10.65,23.18-23.55h0ZM491.92,41.37c0,7.8-5.25,12.97-11.93,12.97s-11.78-5.17-11.78-12.97,5.25-12.98,11.78-12.98,11.93,5.17,11.93,12.98h0ZM412.7,63.87h12.38v-.75l-10.13-14.92v-.82c5.18-2.4,8.4-7.12,8.4-13.35,0-8.77-7.05-15.15-17.33-15.15h-19.88v45h10.88v-14.77h6.3l9.38,14.77h0ZM412.1,34.02c0,3.83-2.93,5.85-6.75,5.85h-8.33v-11.63h8.25c3.98,0,6.83,1.88,6.83,5.77h0ZM339.37,28.24h12.68v-9.38h-36.23v9.38h12.68v16.74l10.88,11.05v-27.79h0ZM237.09,40.27c-.53-12.39-9.8-22.37-23.13-22.37s-23.03,10.58-23.03,23.48,9.45,23.55,23.03,23.55c2.14,0,4.15-.28,6.06-.77l17.07-23.88h0ZM225.89,41.37c0,7.8-5.25,12.97-11.93,12.97s-11.78-5.17-11.78-12.97,5.25-12.98,11.78-12.98,11.93,5.17,11.93,12.98h0ZM144.24,63.87h10.88V18.87h-10.88v45h0ZM96.88,63.87h12.38v-.75l-10.13-14.92v-.82c5.18-2.4,8.4-7.12,8.4-13.35,0-8.77-7.05-15.15-17.33-15.15h-19.88v45h10.88v-14.77h6.3l9.38,14.77h0ZM96.28,34.02c0,3.83-2.93,5.85-6.75,5.85h-8.33v-11.63h8.25c3.98,0,6.83,1.88,6.83,5.77h0ZM23.55,28.24h12.68v-9.38H0v9.38h12.68v35.62h10.88V28.24h0Z"/>
  </g>
  <path class="cls-1" d="M429.09,103.95s.96,1.98,4.49,1.98c3.23,0,5.81-2.66,5.81-6.58s-2.57-6.59-5.87-6.59-4.67,2.16-4.67,2.16h-.21l-.24-1.86h-1.47v17.24h2.07v-6.35h.09ZM428.88,99.34c0-3.05,1.95-4.85,4.25-4.85s4.16,2,4.16,4.85-1.8,4.85-4.16,4.85-4.25-1.8-4.25-4.85h0ZM465.5,93.06h-2.07v7.57c-.06,1.47-1.17,3.56-3.74,3.56-2.36,0-3.44-1.86-3.44-4.28v-6.85h-2.07v7.09c0,3.41,1.8,5.78,5.09,5.78,3.05,0,4.25-1.74,4.46-2.1h.09l.36,1.8h1.32v-12.57h0ZM487.35,93.03h-.72c-1.65,0-3.05.81-3.65,2.24h-.12l-.18-2.22h-1.47v12.57h2.07v-7.42c0-2,1.56-3.5,3.38-3.5h.69v-1.68h0ZM510.52,102.99s-1.26,1.2-3.56,1.2c-2.45,0-4.34-1.59-4.4-4.67h9.37v-.51c0-3.5-1.92-6.26-5.54-6.26s-5.9,2.81-5.9,6.62,2.42,6.58,6.35,6.58c3.14,0,4.46-1.47,4.46-1.47l-.78-1.5h0ZM506.36,94.52c1.98,0,3.14,1.14,3.44,3.32h-7.12c.39-2.25,1.68-3.32,3.68-3.32h0ZM545.62,105.63h2.07v-7.54c.06-1.47,1.14-3.59,3.68-3.59,2.36,0,3.59,1.86,3.59,4.28v6.85h2.07v-7.09c0-3.41-1.92-5.78-5.21-5.78-2.27,0-3.56.81-4.4,2.16h-.15l-.18-1.86h-1.47v12.57h0ZM581.91,102.99s-1.26,1.2-3.56,1.2c-2.45,0-4.34-1.59-4.4-4.67h9.37v-.51c0-3.5-1.92-6.26-5.54-6.26s-5.9,2.81-5.9,6.62,2.42,6.58,6.35,6.58c3.14,0,4.46-1.47,4.46-1.47l-.78-1.5h0ZM577.75,94.52c1.98,0,3.14,1.14,3.44,3.32h-7.12c.39-2.25,1.68-3.32,3.68-3.32h0ZM596.57,93.06v1.68h2.37v7.36c0,2.36,1.17,3.83,3.74,3.83,1.65,0,2.72-.84,2.72-.84l-.69-1.5s-.93.57-1.85.57c-1.26,0-1.86-.72-1.86-2.04v-7.39h3.74v-1.68h-3.74v-3.83h-2.07v3.83h-2.37ZM623.09,105.63h1.77l2.6-9.28c.09-.24.18-.51.18-.81h.12c0,.3.06.57.15.81l2.6,9.28h1.8l4.64-12.57h-2l-3.05,9.31c-.09.27-.18.63-.18.84h-.24c0-.21-.06-.57-.18-.84l-2.66-9.31h-1.74l-2.66,9.31c-.06.27-.21.63-.21.84h-.24c0-.21-.09-.57-.18-.84l-2.99-9.31h-2.16l4.64,12.57h0ZM662.63,99.4c0-4.01-2.87-6.64-6.35-6.64s-6.32,2.63-6.32,6.64,2.81,6.53,6.32,6.53,6.35-2.51,6.35-6.53h0ZM656.28,104.25c-2.3,0-4.28-1.83-4.28-4.88s1.98-4.94,4.28-4.94,4.28,1.92,4.28,4.94-1.97,4.88-4.28,4.88h0ZM683.72,93.03h-.72c-1.65,0-3.05.81-3.65,2.24h-.12l-.18-2.22h-1.47v12.57h2.07v-7.42c0-2,1.56-3.5,3.38-3.5h.69v-1.68h0ZM705.94,93.06l-5.96,5.54h-.06v-11.07h-2.07v18.11h2.07v-4.37l1.47-1.38,4.73,5.75h2.54l-5.81-7.12,5.81-5.45h-2.72Z"/>
</svg>