<?xml version="1.0" encoding="UTF-8"?>
<svg id="Ebene_1" xmlns="http://www.w3.org/2000/svg" version="1.1" viewBox="0 0 765.35 160">
  <!-- Generator: Adobe Illustrator 29.7.1, SVG Export Plug-In . SVG Version: 2.1.1 Build 8)  -->
  <defs>
    <style>
      .st0 {
        fill: #fff;
      }
    </style>
  </defs>
  <polygon class="st0" points="311.69 134.11 340.38 88.91 321.87 69.58 302.06 100.84 311.69 134.11"/>
  <polygon class="st0" points="289.66 57.64 298.12 44.28 279.69 24.99 289.66 57.64"/>
  <polygon class="st0" points="286.69 62.89 254.53 56.22 233.99 84.73 296.68 97.41 286.69 62.89"/>
  <polygon class="st0" points="298.07 101.75 231.91 88.64 212.33 115.73 307.7 135.01 298.07 101.75"/>
  <polygon class="st0" points="276.18 25.65 256.68 52.73 285.74 58.69 276.18 25.65"/>
  <polygon class="st0" points="300.71 96.38 319.29 66.87 300.45 47.23 290.78 62.05 300.71 96.38"/>
  <path class="st0" d="M26.16,53.1h12.67v-9.38H2.61v9.38h12.67v35.62h10.88s0-35.62,0-35.62ZM98.89,58.87c0,3.82-2.92,5.85-6.75,5.85h-8.33v-11.62h8.25c3.98,0,6.83,1.88,6.83,5.78M99.49,88.72h12.38v-.75l-10.12-14.93v-.82c5.18-2.4,8.4-7.12,8.4-13.35,0-8.78-7.05-15.15-17.33-15.15h-19.88v45h10.88v-14.78h6.3l9.38,14.78h-.01ZM146.84,88.72h10.88v-45h-10.88v45ZM228.48,66.22c0,7.8-5.25,12.97-11.92,12.97s-11.78-5.17-11.78-12.97,5.25-12.97,11.78-12.97,11.92,5.17,11.92,12.97M239.68,65.12c-.52-12.39-9.8-22.37-23.12-22.37s-23.03,10.57-23.03,23.47,9.45,23.55,23.03,23.55c2.13,0,4.15-.29,6.06-.77l17.07-23.88h-.01ZM341.96,53.1h12.67v-9.38h-36.23v9.38h12.68v16.74l10.88,11.05v-27.79ZM414.69,58.87c0,3.82-2.92,5.85-6.75,5.85h-8.32v-11.62h8.25c3.98,0,6.82,1.88,6.82,5.78M415.29,88.72h12.38v-.75l-10.12-14.93v-.82c5.18-2.4,8.4-7.12,8.4-13.35,0-8.78-7.05-15.15-17.32-15.15h-19.88v45h10.88v-14.78h6.3l9.38,14.78h-.02ZM494.51,66.22c0,7.8-5.25,12.97-11.92,12.97s-11.77-5.17-11.77-12.97,5.25-12.97,11.77-12.97,11.92,5.17,11.92,12.97M505.76,66.22c0-12.9-9.45-23.47-23.17-23.47s-23.02,10.57-23.02,23.47,9.45,23.55,23.02,23.55,23.17-10.65,23.17-23.55M573.98,88.72h8.4v-45h-10.8v25.8l-21.6-25.8h-8.4v45h10.8v-26.25l21.6,26.25ZM620.84,88.72h10.88v-45h-10.88v45ZM711.23,87.67l-16.58-24.67,16.58-18.3v-.97h-13.28l-17.03,18.82v-18.82h-10.88v45h10.88v-10.5l6.3-7.05,11.7,17.55h12.3v-1.05h.01Z"/>
</svg>